<?xml version="1.0" encoding="UTF-8"?> <svg xmlns="http://www.w3.org/2000/svg" xmlns:xlink="http://www.w3.org/1999/xlink" id="Group_2" data-name="Group 2" width="166.096" height="45" viewBox="0 0 166.096 45"><defs><clipPath id="clip-path"><rect id="Rectangle_2" data-name="Rectangle 2" width="166.096" height="45" fill="#fff"></rect></clipPath></defs><g id="Group_1" data-name="Group 1" transform="translate(0 0)" clip-path="url(#clip-path)"><path id="Path_1" data-name="Path 1" d="M17.092,18.7c-3.048,0-6.693,1.374-8.307,4.184V19.474H0v29.7H9.084V32.144c0-2.989,1.913-5.2,4.9-5.2,3.287,0,4.841,2.211,4.841,5.139V49.176h9.084V30.53c0-6.514-3.346-11.833-10.817-11.833" transform="translate(0 -5.072)" fill="#fff"></path><path id="Path_2" data-name="Path 2" d="M125.653,0a5.319,5.319,0,1,0,5.379,5.318A5.317,5.317,0,0,0,125.653,0" transform="translate(-32.659 0)" fill="#fff"></path><path id="Path_3" data-name="Path 3" d="M206.282,19.348c-.545,0-1.495,0-2.391,0-2.39,0-6.155.956-7.709,4.3v-4H187.4v29.7h9.084V36.384c0-5.917,3.287-8.069,6.932-8.069.9,0,1.759-.01,2.869-.01Z" transform="translate(-50.835 -5.249)" fill="#fff"></path><path id="Path_4" data-name="Path 4" d="M106.129,16.538h-5.136V7.873H92.865V11.7c0,2.749-1.494,4.84-4.6,4.84H86.769v7.948h5.259v12.2c0,5.917,3.765,9.562,9.92,9.562,2.868,0,4.323-.012,4.721-.012V38.177h-2.39c-1.973,0-3.287-.657-3.287-3.107V24.486h5.8V16.538Z" transform="translate(-23.538 -2.136)" fill="#fff"></path><rect id="Rectangle_1" data-name="Rectangle 1" width="9.083" height="29.702" transform="translate(88.512 14.402)" fill="#fff"></rect><path id="Path_5" data-name="Path 5" d="M218.62,45.912a5.315,5.315,0,0,0-5.294,5.293,5.319,5.319,0,1,0,5.294-5.293" transform="translate(-57.868 -12.455)" fill="#e50019"></path><path id="Path_6" data-name="Path 6" d="M65.364,39.357c-.971,1.806-2.733,2.961-5.561,2.961-3.526,0-6.574-2.39-6.753-5.737H73.727a19.123,19.123,0,0,0,.179-2.809c0-9.562-5.677-15.24-14.881-15.24-7.709,0-14.82,6.1-14.82,15.658,0,9.981,7.29,15.837,15.478,15.837,6.69,0,11.155-3.4,13.077-7.759ZM59.145,25.7c4.3,0,5.857,2.749,5.976,5.02H53.229a5.657,5.657,0,0,1,5.916-5.02" transform="translate(-11.991 -5.028)" fill="#fff"></path><path id="Path_7" data-name="Path 7" d="M161.392,39.357c-.971,1.806-2.733,2.961-5.561,2.961-3.526,0-6.574-2.39-6.753-5.737h20.678a19.122,19.122,0,0,0,.179-2.809c0-9.562-5.677-15.24-14.881-15.24-7.709,0-14.82,6.1-14.82,15.658,0,9.981,7.29,15.837,15.478,15.837,6.69,0,11.155-3.4,13.077-7.759ZM155.173,25.7c4.3,0,5.857,2.749,5.976,5.02H149.257a5.657,5.657,0,0,1,5.916-5.02" transform="translate(-38.041 -5.028)" fill="#fff"></path></g></svg> 